<svg width="120" height="27" viewBox="0 0 120 27" fill="none" xmlns="http://www.w3.org/2000/svg">
<path d="M25.5707 0.799998V26H20.3507V15.02H5.5907V26H0.370704V0.799998H5.5907V12.32H20.3507V0.799998H25.5707ZM46.0851 18.44V26H40.8651V18.44L29.1651 0.799998H34.9251L43.3851 13.58H43.5651L52.0251 0.799998H57.7851L46.0851 18.44ZM74.3423 0.799998C76.1423 0.799998 77.7503 1.004 79.1663 1.412C80.6063 1.796 81.8183 2.372 82.8023 3.14C83.7863 3.884 84.5423 4.808 85.0703 5.912C85.5983 6.992 85.8623 8.228 85.8623 9.62C85.8623 11.54 85.3823 13.16 84.4223 14.48C83.4623 15.8 82.0823 16.808 80.2823 17.504L86.2223 26H80.2823L74.9903 18.44H74.3423H66.6023V26H61.3823V0.799998H74.3423ZM66.6023 3.5V15.74H74.3423C76.2383 15.74 77.7023 15.248 78.7343 14.264C79.7663 13.256 80.2823 11.708 80.2823 9.62C80.2823 7.532 79.7663 5.996 78.7343 5.012C77.7023 4.004 76.2383 3.5 74.3423 3.5H66.6023ZM104.935 2.6C103.711 2.6 102.559 2.816 101.479 3.248C100.423 3.68 99.4992 4.34 98.7072 5.228C97.9152 6.116 97.2792 7.244 96.7992 8.612C96.3432 9.956 96.1152 11.552 96.1152 13.4C96.1152 15.248 96.3432 16.856 96.7992 18.224C97.2792 19.568 97.9152 20.684 98.7072 21.572C99.4992 22.46 100.423 23.12 101.479 23.552C102.559 23.984 103.711 24.2 104.935 24.2C106.159 24.2 107.299 23.984 108.355 23.552C109.435 23.12 110.371 22.46 111.163 21.572C111.955 20.684 112.579 19.568 113.035 18.224C113.515 16.856 113.755 15.248 113.755 13.4C113.755 11.552 113.515 9.956 113.035 8.612C112.579 7.244 111.955 6.116 111.163 5.228C110.371 4.34 109.435 3.68 108.355 3.248C107.299 2.816 106.159 2.6 104.935 2.6ZM104.935 0.079999C107.095 0.079999 109.051 0.367999 110.803 0.943999C112.579 1.52 114.091 2.372 115.339 3.5C116.611 4.628 117.595 6.02 118.291 7.676C118.987 9.332 119.335 11.24 119.335 13.4C119.335 15.56 118.987 17.468 118.291 19.124C117.595 20.78 116.611 22.172 115.339 23.3C114.091 24.428 112.579 25.28 110.803 25.856C109.051 26.432 107.095 26.72 104.935 26.72C102.775 26.72 100.807 26.432 99.0312 25.856C97.2552 25.28 95.7312 24.428 94.4592 23.3C93.2112 22.172 92.2392 20.78 91.5432 19.124C90.8712 17.468 90.5352 15.56 90.5352 13.4C90.5352 11.24 90.8712 9.332 91.5432 7.676C92.2392 6.02 93.2112 4.628 94.4592 3.5C95.7312 2.372 97.2552 1.52 99.0312 0.943999C100.807 0.367999 102.775 0.079999 104.935 0.079999Z" fill="white"/>
</svg>
